<svg width="97" height="27" viewBox="0 0 97 27" fill="none" xmlns="http://www.w3.org/2000/svg">
<path d="M1.56 26C1.368 26 1.212 25.94 1.092 25.82C0.972 25.7 0.912 25.544 0.912 25.352C0.912 25.232 0.948 25.1 1.02 24.956L13.908 1.988C14.1 1.676 14.352 1.4 14.664 1.16C14.976 0.919998 15.348 0.799998 15.78 0.799998H23.772C24.204 0.799998 24.528 0.919998 24.744 1.16C24.96 1.376 25.092 1.652 25.14 1.988L28.308 24.956C28.332 25.268 28.248 25.52 28.056 25.712C27.864 25.904 27.624 26 27.336 26H20.856C20.088 26 19.68 25.7 19.632 25.1L19.272 22.724H11.532L10.164 25.1C9.996 25.364 9.792 25.58 9.552 25.748C9.312 25.916 8.988 26 8.58 26H1.56ZM18.912 15.704L18.3 9.008L14.844 15.704H18.912Z" fill="#66FF66"/>
<path d="M30.7107 26C30.4467 26 30.2307 25.904 30.0627 25.712C29.9427 25.568 29.8827 25.4 29.8827 25.208C29.8827 25.16 29.8947 25.1 29.9187 25.028L34.9587 1.412C35.0067 1.148 35.1387 0.92 35.3547 0.727999C35.5947 0.535999 35.8467 0.439999 36.1107 0.439999H42.4107C42.6747 0.439999 42.8907 0.535999 43.0587 0.727999C43.1787 0.871999 43.2387 1.04 43.2387 1.232C43.2387 1.28 43.2267 1.34 43.2027 1.412L40.7187 13.076L44.9667 7.892C45.3027 7.484 45.6987 7.28 46.1547 7.28H53.7867C54.0267 7.28 54.2067 7.34 54.3267 7.46C54.4707 7.58 54.5427 7.724 54.5427 7.892C54.5427 8.132 54.4227 8.396 54.1827 8.684L47.7747 16.352L51.3027 24.668C51.3747 24.812 51.4107 24.956 51.4107 25.1C51.4107 25.34 51.3147 25.556 51.1227 25.748C50.9307 25.916 50.6667 26 50.3307 26H43.1307C42.6267 26 42.2907 25.796 42.1227 25.388L39.4587 18.692L38.1627 25.028C38.1147 25.292 37.9707 25.52 37.7307 25.712C37.5147 25.904 37.2747 26 37.0107 26H30.7107ZM54.1248 26C53.8608 26 53.6448 25.904 53.4768 25.712C53.3568 25.568 53.2968 25.4 53.2968 25.208C53.2968 25.16 53.3088 25.1 53.3328 25.028L56.8968 8.252C56.9448 7.988 57.0888 7.76 57.3288 7.568C57.5688 7.376 57.8208 7.28 58.0848 7.28H64.3848C64.6488 7.28 64.8528 7.376 64.9968 7.568C65.1168 7.712 65.1768 7.88 65.1768 8.072C65.1768 8.12 65.1648 8.18 65.1408 8.252L64.8888 9.512C65.5608 8.792 66.3048 8.24 67.1208 7.856C67.9608 7.472 69.0048 7.28 70.2528 7.28H72.7008C72.9648 7.28 73.1688 7.376 73.3128 7.568C73.4328 7.712 73.4928 7.88 73.4928 8.072C73.4928 8.12 73.4808 8.18 73.4568 8.252L72.2688 13.868C72.2208 14.132 72.0768 14.36 71.8368 14.552C71.5968 14.744 71.3448 14.84 71.0808 14.84H66.4368C64.9968 14.84 64.1328 15.56 63.8448 17L62.1168 25.028C62.0688 25.292 61.9248 25.52 61.6848 25.712C61.4688 25.904 61.2288 26 60.9648 26H54.1248ZM79.2368 26.36C77.2928 26.36 75.7328 25.868 74.5568 24.884C73.4048 23.876 72.8288 22.316 72.8288 20.204C72.8288 19.412 72.8888 18.692 73.0088 18.044C73.2248 17.012 73.4288 16.064 73.6208 15.2C74.3168 12.44 75.4688 10.376 77.0768 9.008C78.7088 7.616 80.6888 6.92 83.0168 6.92C84.2888 6.92 85.2968 7.076 86.0408 7.388C86.8088 7.7 87.4568 8.144 87.9848 8.72L88.0928 8.252C88.1408 7.988 88.2728 7.76 88.4888 7.568C88.7288 7.376 88.9808 7.28 89.2448 7.28H95.3288C95.5928 7.28 95.8088 7.376 95.9768 7.568C96.0968 7.712 96.1568 7.88 96.1568 8.072C96.1568 8.12 96.1448 8.18 96.1208 8.252L92.5568 25.028C92.5088 25.292 92.3648 25.52 92.1248 25.712C91.9088 25.904 91.6688 26 91.4048 26H85.2848C85.0208 26 84.8048 25.904 84.6368 25.712C84.4928 25.52 84.4448 25.292 84.4928 25.028L84.6728 24.2C83.8808 24.92 83.0648 25.46 82.2248 25.82C81.3848 26.18 80.3888 26.36 79.2368 26.36ZM83.2328 19.916C83.8568 19.916 84.3368 19.748 84.6728 19.412C85.0328 19.052 85.3088 18.524 85.5008 17.828C85.7408 16.892 85.9208 16.004 86.0408 15.164C86.0648 15.044 86.0768 14.876 86.0768 14.66C86.0768 13.796 85.5968 13.364 84.6368 13.364C84.0128 13.364 83.5328 13.532 83.1968 13.868C82.8848 14.204 82.6208 14.732 82.4048 15.452C82.1408 16.34 81.9728 17.132 81.9008 17.828C81.8768 17.996 81.8648 18.224 81.8648 18.512C81.8648 18.992 81.9608 19.352 82.1528 19.592C82.3688 19.808 82.7288 19.916 83.2328 19.916Z" fill="#3F3F3F"/>
</svg>
